# xmcd
#
# Track frame offsets: 
#        150
#        24263
#        43569
#        60367
#        75911
#        90842
#        105989
#        122501
#        138972
#        160792
#        175591
#        192082
#        208448
#
# Disc length: 2783 seconds
#
# Revision: 0
# Processed by: cddbd v1.5.2PL0 Copyright (c) Steve Scherf et al.
# Submitted via: ExactAudioCopy v1.0b3
#
DISCID=8d0add0d
DTITLE=Sergej Cetkovic - Budi mi voda
DYEAR=1900
DGENRE=Pop
TTITLE0=Budi mi voda
TTITLE1=Odlazis
TTITLE2=Pisma
TTITLE3=Suze iskrene
TTITLE4=Vodi me sa sobom
TTITLE5=Moje si sve
TTITLE6=Ostacu sam
TTITLE7=Nikada
TTITLE8=Srecna si znam
TTITLE9=Cuvaj srce
TTITLE10=Za mene bolja ne postoji
TTITLE11=Ostacu sam
TTITLE12=Kraj
EXTD=
EXTT0=
EXTT1=
EXTT2=
EXTT3=
EXTT4=
EXTT5=
EXTT6=
EXTT7=
EXTT8=
EXTT9=
EXTT10=
EXTT11=
EXTT12=
PLAYORDER=
